<svg width="210" height="80" viewBox="0 0 210 80" fill="none" xmlns="http://www.w3.org/2000/svg">
<g clip-path="url(#clip0_1_4)">
<path d="M43.189 58.3172C43.574 63.8238 42.2551 68.1864 39.2323 71.4051C36.2693 74.6196 32.2141 76.4069 27.0667 76.7668L11.2653 77.8718C10.966 77.8927 10.6904 77.8217 10.4384 77.6589C10.2421 77.4321 10.1335 77.169 10.1126 76.8697L5.86857 16.1779C5.84764 15.8787 5.92068 15.633 6.08768 15.4408C6.31036 15.1847 6.57133 15.0461 6.8706 15.0252L21.056 14.0333C26.7421 13.6357 31.3016 14.7604 34.7346 17.4073C38.1677 20.0543 40.0767 24.1311 40.4617 29.6376C40.8928 35.8026 39.0158 40.3546 34.8306 43.2937C34.5439 43.4942 34.4966 43.6779 34.6887 43.8449C37.1277 45.178 39.0934 47.0555 40.586 49.4773C42.0786 51.8991 42.9462 54.8457 43.189 58.3172ZM17.2845 23.319C16.9852 23.3399 16.8461 23.5 16.867 23.7993L18.0347 40.4985C18.0556 40.7978 18.2157 40.9369 18.515 40.916L23.0938 40.5958C25.5478 40.4242 27.4108 39.5421 28.6829 37.9495C29.9549 36.3569 30.4946 34.184 30.3021 31.4307C30.1012 28.5577 29.258 26.3912 27.7725 24.9313C26.2871 23.4714 24.3173 22.8272 21.8633 22.9988L17.2845 23.319ZM25.6246 67.7555C28.0187 67.588 29.8455 66.6183 31.105 64.8461C32.3644 63.0739 32.8874 60.6615 32.674 57.609C32.4563 54.4966 31.5985 52.1207 30.1005 50.4812C28.5983 48.7818 26.6501 48.0158 24.2559 48.1833L19.0487 48.5474C18.7494 48.5683 18.6102 48.7284 18.6311 49.0277L19.937 67.7021C19.9579 68.0013 20.118 68.1405 20.4173 68.1196L25.6246 67.7555ZM67.7799 74.6416C62.6324 75.0016 58.3638 73.7363 54.9739 70.8457C51.6438 67.9509 49.7989 63.9298 49.4389 58.7824L47.3295 28.6161C46.9695 23.4686 48.2369 19.2299 51.1317 15.8999C54.0863 12.5656 58.1373 10.7185 63.2848 10.3586C68.4322 9.99866 72.7009 11.264 76.0907 14.1545C79.4806 17.0451 81.3556 21.0641 81.7155 26.2116L83.8249 56.3779C84.1849 61.5253 82.8875 65.7662 79.9329 69.1004C76.9783 72.4346 72.9273 74.2817 67.7799 74.6416ZM67.1521 65.6636C69.1871 65.5212 70.7849 64.7178 71.9456 63.2533C73.1021 61.7289 73.6008 59.8295 73.4418 57.5551L71.2695 26.4909C71.1105 24.2165 70.3544 22.4349 69.0012 21.1461C67.6438 19.7975 65.9476 19.1944 63.9126 19.3367C61.8775 19.479 60.2818 20.3123 59.1253 21.8367C58.0245 23.2971 57.5536 25.1644 57.7126 27.4389L59.8849 58.503C60.0439 60.7775 60.7722 62.5911 62.0697 63.9439C63.4229 65.2326 65.117 65.8059 67.1521 65.6636ZM109.689 71.711C104.542 72.071 100.273 70.8057 96.8833 67.9151C93.5532 65.0203 91.7082 60.9992 91.3483 55.8518L89.2389 25.6855C88.8789 20.538 90.1463 16.2993 93.0411 12.9693C95.9957 9.63504 100.047 7.78795 105.194 7.42801C110.342 7.06807 114.61 8.33338 118 11.224C121.39 14.1145 123.265 18.1335 123.625 23.281L125.734 53.4473C126.094 58.5947 124.797 62.8356 121.842 66.1698C118.888 69.504 114.837 71.3511 109.689 71.711ZM109.061 62.733C111.096 62.5907 112.694 61.7872 113.855 60.3227C115.011 58.7983 115.51 56.8989 115.351 54.6245L113.179 23.5603C113.02 21.2859 112.264 19.5043 110.911 18.2155C109.553 16.8669 107.857 16.2638 105.822 16.4061C103.787 16.5484 102.191 17.3817 101.035 18.9061C99.9339 20.3665 99.463 22.2339 99.622 24.5083L101.794 55.5725C101.953 57.8469 102.682 59.6605 103.979 61.0133C105.332 62.302 107.026 62.8753 109.061 62.733ZM136.555 69.1106C136.256 69.1316 135.98 69.0606 135.728 68.8978C135.532 68.6709 135.423 68.4079 135.402 68.1086L131.158 7.41681C131.137 7.11754 131.21 6.87185 131.377 6.67973C131.6 6.42357 131.861 6.28503 132.16 6.2641L140.42 5.68652C140.719 5.66559 140.967 5.76856 141.164 5.99542C141.416 6.15824 141.552 6.38929 141.573 6.68855L143.306 31.468C143.322 31.7075 143.393 31.8529 143.517 31.9044C143.636 31.896 143.75 31.7979 143.857 31.6099L155.56 5.43983C155.821 4.88022 156.252 4.57948 156.85 4.53763L165.738 3.9161C166.157 3.8868 166.435 3.98768 166.572 4.21872C166.708 4.44977 166.699 4.75113 166.545 5.12281L154.842 31.2929C154.798 31.5365 154.781 31.7182 154.789 31.8379L171.751 65.3864C171.819 65.5019 171.862 65.6794 171.878 65.9188C171.912 66.3977 171.629 66.658 171.031 66.6999L162.143 67.3214C161.484 67.3674 161.046 67.1274 160.829 66.6013L148.421 41.3954C148.348 41.2201 148.254 41.1665 148.139 41.2347C148.019 41.2431 147.903 41.3113 147.792 41.4394L144.622 47.7058C144.519 47.9536 144.471 48.1373 144.48 48.2571L145.817 67.3804C145.838 67.6796 145.737 67.9573 145.514 68.2135C145.347 68.4056 145.114 68.5121 144.815 68.5331L136.555 69.1106ZM191.637 65.9807C186.669 66.3281 182.555 65.1121 179.293 62.3329C176.031 59.5537 174.231 55.74 173.892 50.8918L173.728 48.5575C173.707 48.2582 173.78 48.0125 173.947 47.8204C174.17 47.5643 174.431 47.4257 174.73 47.4048L182.9 46.8335C183.2 46.8126 183.447 46.9155 183.644 47.1424C183.896 47.3052 184.032 47.5362 184.053 47.8355L184.179 49.6311C184.342 51.9654 185.042 53.8111 186.28 55.168C187.578 56.5208 189.154 57.1323 191.01 57.0026C192.865 56.8728 194.345 56.1077 195.45 54.7072C196.551 53.2469 197.024 51.4094 196.869 49.1948C196.76 47.6386 196.337 46.3149 195.599 45.2238C194.861 44.1326 193.858 43.1201 192.59 42.1863C191.322 41.2525 189.304 39.92 186.536 38.1888C183.393 36.2433 180.835 34.4975 178.862 32.9514C176.949 31.401 175.283 29.5026 173.863 27.2562C172.498 24.9458 171.707 22.2344 171.49 19.122C171.142 14.1541 172.362 10.0991 175.15 6.95699C177.938 3.81489 181.785 2.07223 186.693 1.72903C191.661 1.38164 195.78 2.65742 199.05 5.55637C202.316 8.39546 204.127 12.3588 204.483 17.4464L204.634 19.6011C204.655 19.9004 204.554 20.1781 204.331 20.4342C204.164 20.6264 203.931 20.7329 203.632 20.7538L195.551 21.3188C195.252 21.3398 194.977 21.2688 194.725 21.106C194.528 20.8791 194.42 20.6161 194.399 20.3168L194.235 17.9825C194.072 15.6482 193.344 13.8346 192.051 12.5417C190.813 11.1847 189.236 10.5732 187.321 10.7071C185.526 10.8327 184.105 11.5936 183.06 12.9899C182.011 14.3264 181.566 16.1318 181.725 18.4063C181.875 20.561 182.601 22.3447 183.903 23.7573C185.265 25.1658 187.833 27.0612 191.609 29.4437C195.448 31.8818 198.356 33.9039 200.333 35.5099C202.306 37.056 203.872 38.811 205.032 40.7749C206.192 42.7388 206.87 45.1273 207.067 47.9404C207.422 53.028 206.183 57.2347 203.348 60.5606C200.509 63.8266 196.605 65.6333 191.637 65.9807Z" fill="#58DD94"/>
<path d="M40.2439 58.6138C40.629 64.1204 39.3101 68.483 36.2872 71.7017C33.3242 74.9162 29.269 76.7034 24.1216 77.0634L8.32019 78.1683C8.02092 78.1893 7.7453 78.1183 7.49333 77.9555C7.29702 77.7286 7.18841 77.4656 7.16748 77.1663L2.9235 16.4745C2.90257 16.1752 2.97561 15.9295 3.14262 15.7374C3.36529 15.4813 3.62626 15.3427 3.92553 15.3218L18.1109 14.3299C23.797 13.9322 28.3566 15.0569 31.7896 17.7039C35.2226 20.3509 37.1316 24.4276 37.5167 29.9342C37.9478 36.0991 36.0707 40.6512 31.8855 43.5903C31.5988 43.7907 31.5515 43.9745 31.7437 44.1415C34.1826 45.4746 36.1483 47.3521 37.6409 49.7738C39.1335 52.1956 40.0012 55.1423 40.2439 58.6138ZM14.3394 23.6156C14.0402 23.6365 13.901 23.7966 13.9219 24.0958L15.0897 40.7951C15.1106 41.0943 15.2707 41.2335 15.5699 41.2126L20.1488 40.8924C22.6028 40.7208 24.4658 39.8387 25.7378 38.2461C27.0098 36.6535 27.5495 34.4805 27.357 31.7273C27.1561 28.8543 26.3129 26.6878 24.8275 25.2279C23.342 23.7679 21.3723 23.1238 18.9183 23.2954L14.3394 23.6156ZM22.6795 68.052C25.0736 67.8846 26.9004 66.9148 28.1599 65.1426C29.4193 63.3705 29.9423 60.9581 29.7289 57.9056C29.5112 54.7932 28.6534 52.4172 27.1554 50.7777C25.6532 49.0784 23.705 48.3124 21.3109 48.4798L16.1036 48.844C15.8043 48.8649 15.6651 49.025 15.6861 49.3242L16.9919 67.9986C17.0128 68.2979 17.1729 68.4371 17.4722 68.4162L22.6795 68.052ZM64.8348 74.9382C59.6874 75.2981 55.4187 74.0328 52.0288 71.1423C48.6988 68.2475 46.8538 64.2264 46.4938 59.079L44.3844 28.9126C44.0245 23.7652 45.2919 19.5265 48.1866 16.1964C51.1412 12.8622 55.1923 11.0151 60.3397 10.6552C65.4871 10.2952 69.7558 11.5605 73.1457 14.4511C76.5356 17.3417 78.4105 21.3607 78.7704 26.5081L80.8799 56.6745C81.2398 61.8219 79.9425 66.0627 76.9879 69.3969C74.0333 72.7312 69.9822 74.5783 64.8348 74.9382ZM64.207 65.9601C66.242 65.8178 67.8399 65.0144 69.0005 63.5499C70.157 62.0255 70.6557 60.1261 70.4967 57.8516L68.3245 26.7875C68.1654 24.513 67.4093 22.7314 66.0561 21.4427C64.6987 20.0941 63.0025 19.4909 60.9675 19.6332C58.9325 19.7755 57.3367 20.6089 56.1802 22.1333C55.0794 23.5936 54.6085 25.461 54.7676 27.7355L56.9398 58.7996C57.0988 61.0741 57.8271 62.8877 59.1247 64.2405C60.4778 65.5292 62.172 66.1024 64.207 65.9601ZM106.744 72.0076C101.597 72.3676 97.3281 71.1022 93.9382 68.2117C90.6082 65.3169 88.7632 61.2958 88.4032 56.1484L86.2938 25.982C85.9338 20.8346 87.2012 16.5959 90.096 13.2658C93.0506 9.93161 97.1016 8.08452 102.249 7.72458C107.397 7.36464 111.665 8.62995 115.055 11.5205C118.445 14.4111 120.32 18.4301 120.68 23.5775L122.789 53.7439C123.149 58.8913 121.852 63.1321 118.897 66.4664C115.943 69.8006 111.892 71.6477 106.744 72.0076ZM106.116 63.0295C108.151 62.8872 109.749 62.0838 110.91 60.6193C112.066 59.0949 112.565 57.1955 112.406 54.921L110.234 23.8569C110.075 21.5824 109.319 19.8008 107.966 18.5121C106.608 17.1635 104.912 16.5604 102.877 16.7027C100.842 16.845 99.2461 17.6783 98.0896 19.2027C96.9888 20.663 96.5179 22.5304 96.677 24.8049L98.8492 55.869C99.0082 58.1435 99.7365 59.9571 101.034 61.3099C102.387 62.5986 104.081 63.1718 106.116 63.0295ZM133.61 69.4072C133.311 69.4281 133.035 69.3572 132.783 69.1944C132.587 68.9675 132.478 68.7045 132.457 68.4052L128.213 7.71338C128.192 7.41411 128.265 7.16842 128.432 6.9763C128.655 6.72014 128.916 6.5816 129.215 6.56067L137.475 5.98309C137.774 5.96216 138.022 6.06513 138.218 6.29199C138.47 6.45481 138.607 6.68586 138.628 6.98512L140.361 31.7646C140.377 32.004 140.448 32.1495 140.572 32.201C140.691 32.1926 140.805 32.0944 140.912 31.9065L152.615 5.7364C152.876 5.17679 153.306 4.87605 153.905 4.8342L162.793 4.21267C163.212 4.18337 163.49 4.28425 163.626 4.51529C163.763 4.74634 163.754 5.0477 163.599 5.41938L151.896 31.5895C151.853 31.8331 151.836 32.0147 151.844 32.1344L168.806 65.683C168.874 65.7985 168.917 65.976 168.933 66.2154C168.967 66.6942 168.684 66.9546 168.086 66.9964L159.197 67.618C158.539 67.664 158.101 67.424 157.884 66.8978L145.476 41.692C145.403 41.5166 145.309 41.463 145.194 41.5313C145.074 41.5396 144.958 41.6079 144.847 41.7359L141.676 48.0024C141.574 48.2502 141.526 48.4339 141.535 48.5536L142.872 67.6769C142.893 67.9762 142.792 68.2539 142.569 68.5101C142.402 68.7022 142.169 68.8087 141.87 68.8296L133.61 69.4072ZM188.692 66.2772C183.724 66.6246 179.61 65.4087 176.348 62.6295C173.086 59.8502 171.286 56.0365 170.947 51.1884L170.783 48.8541C170.762 48.5548 170.835 48.3091 171.002 48.117C171.225 47.8608 171.486 47.7223 171.785 47.7014L179.955 47.1301C180.255 47.1091 180.502 47.2121 180.699 47.439C180.951 47.6018 181.087 47.8328 181.108 48.1321L181.234 49.9277C181.397 52.262 182.097 54.1076 183.335 55.4646C184.633 56.8174 186.209 57.4289 188.064 57.2992C189.92 57.1694 191.4 56.4043 192.505 55.0038C193.606 53.5435 194.079 51.706 193.924 49.4914C193.815 47.9352 193.392 46.6115 192.654 45.5203C191.916 44.4291 190.913 43.4166 189.645 42.4828C188.377 41.549 186.359 40.2165 183.591 38.4854C180.448 36.5399 177.89 34.7941 175.917 33.2479C174.004 31.6976 172.338 29.7992 170.918 27.5528C169.553 25.2424 168.762 22.5309 168.545 19.4185C168.197 14.4507 169.417 10.3957 172.205 7.25356C174.992 4.11146 178.84 2.3688 183.748 2.0256C188.716 1.67821 192.835 2.95399 196.105 5.85294C199.371 8.69203 201.182 12.6554 201.538 17.7429L201.689 19.8977C201.71 20.1969 201.609 20.4747 201.386 20.7308C201.219 20.9229 200.986 21.0295 200.687 21.0504L192.606 21.6154C192.307 21.6363 192.031 21.5654 191.78 21.4026C191.583 21.1757 191.475 20.9126 191.454 20.6134L191.29 18.2791C191.127 15.9448 190.399 14.1312 189.106 12.8382C187.868 11.4813 186.291 10.8697 184.376 11.0037C182.58 11.1292 181.16 11.8902 180.115 13.2865C179.066 14.6229 178.62 16.4284 178.78 18.7028C178.93 20.8576 179.656 22.6413 180.958 24.0539C182.32 25.4623 184.888 27.3578 188.664 29.7402C192.503 32.1784 195.411 34.2004 197.388 35.8064C199.361 37.3526 200.927 39.1076 202.087 41.0715C203.246 43.0354 203.925 45.4239 204.121 48.237C204.477 53.3246 203.238 57.5313 200.403 60.8572C197.564 64.1232 193.66 65.9299 188.692 66.2772Z" fill="#2C424F"/>
</g>
<defs>
<clipPath id="clip0_1_4">
<rect width="210" height="80" fill="white"/>
</clipPath>
</defs>
</svg>
