<svg width="330" height="500" viewBox="0 0 330 500" fill="none" xmlns="http://www.w3.org/2000/svg">
<g clip-path="url(#clip0_39_20)">
<rect width="330" height="500" fill="white"/>
<rect width="330" height="500" rx="5" fill="#2C424F"/>
<path d="M58.3062 235.48C54.8662 235.48 52.0862 234.44 49.9662 232.36C47.8862 230.28 46.8462 227.52 46.8462 224.08V203.92C46.8462 200.48 47.8862 197.72 49.9662 195.64C52.0862 193.56 54.8662 192.52 58.3062 192.52C61.7462 192.52 64.5262 193.56 66.6462 195.64C68.7662 197.72 69.8262 200.48 69.8262 203.92V224.08C69.8262 227.52 68.7662 230.28 66.6462 232.36C64.5262 234.44 61.7462 235.48 58.3062 235.48ZM58.3062 229.48C59.6662 229.48 60.7662 229.02 61.6062 228.1C62.4462 227.14 62.8662 225.9 62.8662 224.38V203.62C62.8662 202.1 62.4462 200.88 61.6062 199.96C60.7662 199 59.6662 198.52 58.3062 198.52C56.9462 198.52 55.8462 199 55.0062 199.96C54.2062 200.88 53.8062 202.1 53.8062 203.62V224.38C53.8062 225.9 54.2062 227.14 55.0062 228.1C55.8462 229.02 56.9462 229.48 58.3062 229.48ZM88.3057 235C88.1057 235 87.9257 234.94 87.7657 234.82C87.6457 234.66 87.5857 234.48 87.5857 234.28V193.72C87.5857 193.52 87.6457 193.36 87.7657 193.24C87.9257 193.08 88.1057 193 88.3057 193H93.8257C94.0257 193 94.1857 193.08 94.3057 193.24C94.4657 193.36 94.5457 193.52 94.5457 193.72V228.7C94.5457 228.9 94.6457 229 94.8457 229H107.806C108.006 229 108.166 229.08 108.286 229.24C108.446 229.36 108.526 229.52 108.526 229.72V234.28C108.526 234.48 108.446 234.66 108.286 234.82C108.166 234.94 108.006 235 107.806 235H88.3057ZM115.668 200.14C114.428 200.14 113.408 199.74 112.608 198.94C111.808 198.14 111.408 197.12 111.408 195.88C111.408 194.64 111.808 193.62 112.608 192.82C113.408 192.02 114.428 191.62 115.668 191.62C116.908 191.62 117.908 192.02 118.668 192.82C119.468 193.62 119.868 194.64 119.868 195.88C119.868 197.12 119.468 198.14 118.668 198.94C117.868 199.74 116.868 200.14 115.668 200.14ZM112.968 235C112.768 235 112.588 234.94 112.428 234.82C112.308 234.66 112.248 234.48 112.248 234.28V205.06C112.248 204.86 112.308 204.7 112.428 204.58C112.588 204.42 112.768 204.34 112.968 204.34H118.488C118.688 204.34 118.848 204.42 118.968 204.58C119.128 204.7 119.208 204.86 119.208 205.06V234.28C119.208 234.48 119.128 234.66 118.968 234.82C118.848 234.94 118.688 235 118.488 235H112.968ZM131.439 235C130.999 235 130.719 234.8 130.599 234.4L123.279 205.06V204.82C123.279 204.46 123.499 204.28 123.939 204.28H130.059C130.539 204.28 130.799 204.5 130.839 204.94L134.439 223.6C134.479 223.72 134.539 223.78 134.619 223.78C134.699 223.78 134.759 223.72 134.799 223.6L138.339 204.94C138.379 204.5 138.639 204.28 139.119 204.28L145.239 204.4C145.799 204.4 146.019 204.66 145.899 205.18L138.639 234.4C138.519 234.8 138.239 235 137.799 235H131.439ZM162.341 203.98C163.421 203.98 164.261 204.18 164.861 204.58C165.181 204.78 165.301 205.08 165.221 205.48L164.261 211.06C164.221 211.54 163.941 211.68 163.421 211.48C162.861 211.32 162.341 211.24 161.861 211.24C161.381 211.24 160.941 211.3 160.541 211.42C159.421 211.58 158.501 212.22 157.781 213.34C157.101 214.42 156.761 215.72 156.761 217.24V234.22C156.761 234.42 156.681 234.6 156.521 234.76C156.401 234.88 156.241 234.94 156.041 234.94H150.521C150.321 234.94 150.141 234.88 149.981 234.76C149.861 234.6 149.801 234.42 149.801 234.22V205.06C149.801 204.86 149.861 204.7 149.981 204.58C150.141 204.42 150.321 204.34 150.521 204.34H156.041C156.241 204.34 156.401 204.42 156.521 204.58C156.681 204.7 156.761 204.86 156.761 205.06V207.82C156.761 207.98 156.801 208.08 156.881 208.12C156.961 208.12 157.021 208.04 157.061 207.88C158.141 205.28 159.901 203.98 162.341 203.98ZM178.458 235.48C175.138 235.48 172.518 234.6 170.598 232.84C168.718 231.08 167.778 228.7 167.778 225.7V213.64C167.778 210.68 168.738 208.32 170.658 206.56C172.578 204.76 175.178 203.86 178.458 203.86C181.778 203.86 184.398 204.76 186.318 206.56C188.238 208.32 189.198 210.68 189.198 213.64V225.7C189.198 228.7 188.238 231.08 186.318 232.84C184.438 234.6 181.818 235.48 178.458 235.48ZM178.458 229.42C179.578 229.42 180.478 229.04 181.158 228.28C181.878 227.48 182.238 226.44 182.238 225.16V214.12C182.238 212.88 181.878 211.86 181.158 211.06C180.478 210.26 179.578 209.86 178.458 209.86C177.338 209.86 176.438 210.26 175.758 211.06C175.078 211.82 174.738 212.84 174.738 214.12V225.16C174.738 226.44 175.078 227.48 175.758 228.28C176.438 229.04 177.338 229.42 178.458 229.42ZM223.688 193.72C223.688 193.52 223.748 193.36 223.868 193.24C224.028 193.08 224.208 193 224.408 193H229.868C230.068 193 230.228 193.08 230.348 193.24C230.508 193.36 230.588 193.52 230.588 193.72V234.28C230.588 234.48 230.508 234.66 230.348 234.82C230.228 234.94 230.068 235 229.868 235H223.568C223.168 235 222.908 234.8 222.788 234.4L213.848 208.96C213.808 208.84 213.728 208.8 213.608 208.84C213.528 208.84 213.488 208.9 213.488 209.02L213.548 234.28C213.548 234.48 213.468 234.66 213.308 234.82C213.188 234.94 213.028 235 212.828 235H207.368C207.168 235 206.988 234.94 206.828 234.82C206.708 234.66 206.648 234.48 206.648 234.28V193.72C206.648 193.52 206.708 193.36 206.828 193.24C206.988 193.08 207.168 193 207.368 193H213.548C213.948 193 214.208 193.2 214.328 193.6L223.328 218.86C223.368 218.98 223.428 219.04 223.508 219.04C223.628 219 223.688 218.92 223.688 218.8V193.72ZM247.018 203.86C250.178 203.86 252.738 204.78 254.698 206.62C256.658 208.46 257.638 210.88 257.638 213.88V234.28C257.638 234.48 257.558 234.66 257.398 234.82C257.278 234.94 257.118 235 256.918 235H251.398C251.198 235 251.018 234.94 250.858 234.82C250.738 234.66 250.678 234.48 250.678 234.28V233.14C250.678 233.02 250.638 232.94 250.558 232.9C250.478 232.86 250.398 232.9 250.318 233.02C248.918 234.66 246.878 235.48 244.198 235.48C241.918 235.48 239.898 234.84 238.138 233.56C236.418 232.24 235.558 229.86 235.558 226.42C235.558 222.82 236.598 220.26 238.678 218.74C240.798 217.22 243.658 216.46 247.258 216.46H250.378C250.578 216.46 250.678 216.36 250.678 216.16V214.6C250.678 213.16 250.318 212.02 249.598 211.18C248.878 210.3 247.978 209.86 246.898 209.86C246.058 209.86 245.358 210.14 244.798 210.7C244.238 211.22 243.898 211.94 243.778 212.86C243.738 213.34 243.478 213.58 242.998 213.58H237.178C236.698 213.58 236.478 213.34 236.518 212.86C236.718 210.14 237.778 207.96 239.698 206.32C241.658 204.68 244.098 203.86 247.018 203.86ZM246.118 229.72C247.318 229.72 248.378 229.34 249.298 228.58C250.218 227.82 250.678 226.76 250.678 225.4V221.98C250.678 221.78 250.578 221.68 250.378 221.68H247.258C245.898 221.68 244.798 222.06 243.958 222.82C243.118 223.54 242.698 224.6 242.698 226C242.698 227.24 243.018 228.18 243.658 228.82C244.298 229.42 245.118 229.72 246.118 229.72ZM250.678 199.36C250.158 199.36 249.658 199.28 249.178 199.12C248.698 198.92 248.118 198.62 247.438 198.22C247.158 198.06 246.858 197.88 246.538 197.68C246.218 197.48 245.938 197.34 245.698 197.26C245.458 197.14 245.178 197.08 244.858 197.08C243.938 197.08 243.178 197.54 242.578 198.46C242.298 198.86 241.958 198.94 241.558 198.7L239.638 197.32C239.278 197.08 239.178 196.76 239.338 196.36C239.898 195.08 240.598 194.14 241.438 193.54C242.318 192.9 243.278 192.58 244.318 192.58C244.958 192.58 245.558 192.7 246.118 192.94C246.678 193.18 247.318 193.52 248.038 193.96C248.198 194.04 248.438 194.2 248.758 194.44C249.078 194.64 249.378 194.8 249.658 194.92C249.978 195.04 250.298 195.1 250.618 195.1C251.578 195.1 252.338 194.66 252.898 193.78C253.138 193.3 253.458 193.2 253.858 193.48L255.778 194.8C255.978 194.92 256.078 195.12 256.078 195.4C256.078 195.64 255.998 195.9 255.838 196.18C255.158 197.3 254.338 198.12 253.378 198.64C252.458 199.12 251.558 199.36 250.678 199.36ZM272.735 235.48C269.415 235.48 266.795 234.6 264.875 232.84C262.995 231.08 262.055 228.7 262.055 225.7V213.64C262.055 210.68 263.015 208.32 264.935 206.56C266.855 204.76 269.455 203.86 272.735 203.86C276.055 203.86 278.675 204.76 280.595 206.56C282.515 208.32 283.475 210.68 283.475 213.64V225.7C283.475 228.7 282.515 231.08 280.595 232.84C278.715 234.6 276.095 235.48 272.735 235.48ZM272.735 229.42C273.855 229.42 274.755 229.04 275.435 228.28C276.155 227.48 276.515 226.44 276.515 225.16V214.12C276.515 212.88 276.155 211.86 275.435 211.06C274.755 210.26 273.855 209.86 272.735 209.86C271.615 209.86 270.715 210.26 270.035 211.06C269.355 211.82 269.015 212.84 269.015 214.12V225.16C269.015 226.44 269.355 227.48 270.035 228.28C270.715 229.04 271.615 229.42 272.735 229.42ZM51.4788 264.94C53.5988 264.94 55.4588 265.46 57.0588 266.5C58.6988 267.54 59.9588 269 60.8388 270.88C61.7588 272.76 62.2188 274.9 62.2188 277.3C62.2188 280.9 61.2588 283.8 59.3388 286C57.4588 288.2 54.9588 289.3 51.8388 289.3H46.7388C46.5388 289.3 46.4388 289.4 46.4388 289.6V306.28C46.4388 306.48 46.3588 306.66 46.1988 306.82C46.0788 306.94 45.9188 307 45.7188 307H40.1988C39.9988 307 39.8188 306.94 39.6588 306.82C39.5388 306.66 39.4788 306.48 39.4788 306.28V265.66C39.4788 265.46 39.5388 265.3 39.6588 265.18C39.8188 265.02 39.9988 264.94 40.1988 264.94H51.4788ZM50.3388 283.84C51.8188 283.84 52.9988 283.28 53.8788 282.16C54.7988 281 55.2588 279.44 55.2588 277.48C55.2588 275.48 54.7988 273.9 53.8788 272.74C52.9988 271.54 51.8188 270.94 50.3388 270.94H46.7388C46.5388 270.94 46.4388 271.04 46.4388 271.24V283.54C46.4388 283.74 46.5388 283.84 46.7388 283.84H50.3388ZM76.6807 307.48C73.3607 307.48 70.7407 306.6 68.8207 304.84C66.9407 303.08 66.0007 300.7 66.0007 297.7V285.64C66.0007 282.68 66.9607 280.32 68.8807 278.56C70.8007 276.76 73.4007 275.86 76.6807 275.86C80.0007 275.86 82.6207 276.76 84.5407 278.56C86.4607 280.32 87.4207 282.68 87.4207 285.64V297.7C87.4207 300.7 86.4607 303.08 84.5407 304.84C82.6607 306.6 80.0407 307.48 76.6807 307.48ZM76.6807 301.42C77.8007 301.42 78.7007 301.04 79.3807 300.28C80.1007 299.48 80.4607 298.44 80.4607 297.16V286.12C80.4607 284.88 80.1007 283.86 79.3807 283.06C78.7007 282.26 77.8007 281.86 76.6807 281.86C75.5607 281.86 74.6607 282.26 73.9807 283.06C73.3007 283.82 72.9607 284.84 72.9607 286.12V297.16C72.9607 298.44 73.3007 299.48 73.9807 300.28C74.6607 301.04 75.5607 301.42 76.6807 301.42ZM101.799 307.36C98.6391 307.36 96.1191 306.6 94.2391 305.08C92.3591 303.56 91.4191 301.5 91.4191 298.9V298.48C91.4191 298.28 91.4791 298.12 91.5991 298C91.7591 297.84 91.9391 297.76 92.1391 297.76H97.2991C97.4991 297.76 97.6591 297.84 97.7791 298C97.9391 298.12 98.0191 298.28 98.0191 298.48V298.78C98.0191 299.74 98.3791 300.54 99.0991 301.18C99.8591 301.82 100.779 302.14 101.859 302.14C102.899 302.14 103.719 301.84 104.319 301.24C104.919 300.64 105.219 299.88 105.219 298.96C105.219 298.16 104.959 297.5 104.439 296.98C103.919 296.42 103.359 296 102.759 295.72C102.159 295.44 101.079 294.98 99.5191 294.34C97.2391 293.46 95.3591 292.34 93.8791 290.98C92.4391 289.62 91.7191 287.6 91.7191 284.92C91.7191 282.12 92.5991 279.94 94.3591 278.38C96.1591 276.78 98.5791 275.98 101.619 275.98C104.739 275.98 107.199 276.82 108.999 278.5C110.839 280.14 111.759 282.36 111.759 285.16C111.759 285.36 111.679 285.54 111.519 285.7C111.399 285.82 111.239 285.88 111.039 285.88H105.999C105.799 285.88 105.619 285.82 105.459 285.7C105.339 285.54 105.279 285.36 105.279 285.16V284.8C105.279 283.84 104.939 283.04 104.259 282.4C103.619 281.76 102.799 281.44 101.799 281.44C100.759 281.44 99.9191 281.78 99.2791 282.46C98.6791 283.1 98.3791 283.88 98.3791 284.8C98.3791 285.56 98.6191 286.2 99.0991 286.72C99.5791 287.24 100.119 287.66 100.719 287.98C101.319 288.26 102.319 288.7 103.719 289.3C105.399 289.98 106.799 290.66 107.919 291.34C109.079 291.98 110.079 292.92 110.919 294.16C111.799 295.36 112.239 296.86 112.239 298.66C112.239 301.34 111.299 303.46 109.419 305.02C107.539 306.58 104.999 307.36 101.799 307.36ZM124.826 307.36C121.666 307.36 119.146 306.6 117.266 305.08C115.386 303.56 114.446 301.5 114.446 298.9V298.48C114.446 298.28 114.506 298.12 114.626 298C114.786 297.84 114.966 297.76 115.166 297.76H120.326C120.526 297.76 120.686 297.84 120.806 298C120.966 298.12 121.046 298.28 121.046 298.48V298.78C121.046 299.74 121.406 300.54 122.126 301.18C122.886 301.82 123.806 302.14 124.886 302.14C125.926 302.14 126.746 301.84 127.346 301.24C127.946 300.64 128.246 299.88 128.246 298.96C128.246 298.16 127.986 297.5 127.466 296.98C126.946 296.42 126.386 296 125.786 295.72C125.186 295.44 124.106 294.98 122.546 294.34C120.266 293.46 118.386 292.34 116.906 290.98C115.466 289.62 114.746 287.6 114.746 284.92C114.746 282.12 115.626 279.94 117.386 278.38C119.186 276.78 121.606 275.98 124.646 275.98C127.766 275.98 130.226 276.82 132.026 278.5C133.866 280.14 134.786 282.36 134.786 285.16C134.786 285.36 134.706 285.54 134.546 285.7C134.426 285.82 134.266 285.88 134.066 285.88H129.026C128.826 285.88 128.646 285.82 128.486 285.7C128.366 285.54 128.306 285.36 128.306 285.16V284.8C128.306 283.84 127.966 283.04 127.286 282.4C126.646 281.76 125.826 281.44 124.826 281.44C123.786 281.44 122.946 281.78 122.306 282.46C121.706 283.1 121.406 283.88 121.406 284.8C121.406 285.56 121.646 286.2 122.126 286.72C122.606 287.24 123.146 287.66 123.746 287.98C124.346 288.26 125.346 288.7 126.746 289.3C128.426 289.98 129.826 290.66 130.946 291.34C132.106 291.98 133.106 292.92 133.946 294.16C134.826 295.36 135.266 296.86 135.266 298.66C135.266 301.34 134.326 303.46 132.446 305.02C130.566 306.58 128.026 307.36 124.826 307.36ZM153.173 277.06C153.173 276.86 153.233 276.7 153.353 276.58C153.513 276.42 153.693 276.34 153.893 276.34H159.413C159.613 276.34 159.773 276.42 159.893 276.58C160.053 276.7 160.133 276.86 160.133 277.06V306.28C160.133 306.48 160.053 306.66 159.893 306.82C159.773 306.94 159.613 307 159.413 307H153.893C153.693 307 153.513 306.94 153.353 306.82C153.233 306.66 153.173 306.48 153.173 306.28V304.96C153.173 304.84 153.133 304.76 153.053 304.72C152.973 304.68 152.893 304.72 152.813 304.84C151.653 306.56 149.793 307.42 147.233 307.42C144.793 307.42 142.813 306.7 141.293 305.26C139.813 303.78 139.073 301.52 139.073 298.48V277.06C139.073 276.86 139.133 276.7 139.253 276.58C139.413 276.42 139.593 276.34 139.793 276.34H145.313C145.513 276.34 145.673 276.42 145.793 276.58C145.953 276.7 146.033 276.86 146.033 277.06V296.98C146.033 299.98 147.193 301.48 149.513 301.48C150.673 301.48 151.573 301.06 152.213 300.22C152.853 299.34 153.173 298.16 153.173 296.68V277.06ZM169.281 272.14C168.041 272.14 167.021 271.74 166.221 270.94C165.421 270.14 165.021 269.12 165.021 267.88C165.021 266.64 165.421 265.62 166.221 264.82C167.021 264.02 168.041 263.62 169.281 263.62C170.521 263.62 171.521 264.02 172.281 264.82C173.081 265.62 173.481 266.64 173.481 267.88C173.481 269.12 173.081 270.14 172.281 270.94C171.481 271.74 170.481 272.14 169.281 272.14ZM166.581 307C166.381 307 166.201 306.94 166.041 306.82C165.921 306.66 165.861 306.48 165.861 306.28V277.06C165.861 276.86 165.921 276.7 166.041 276.58C166.201 276.42 166.381 276.34 166.581 276.34H172.101C172.301 276.34 172.461 276.42 172.581 276.58C172.741 276.7 172.821 276.86 172.821 277.06V306.28C172.821 306.48 172.741 306.66 172.581 306.82C172.461 306.94 172.301 307 172.101 307H166.581ZM201.564 307.48C198.164 307.48 195.424 306.46 193.344 304.42C191.304 302.34 190.284 299.6 190.284 296.2V275.74C190.284 272.3 191.304 269.58 193.344 267.58C195.424 265.54 198.164 264.52 201.564 264.52C205.004 264.52 207.764 265.54 209.844 267.58C211.924 269.58 212.964 272.3 212.964 275.74V276.46C212.964 276.66 212.884 276.84 212.724 277C212.604 277.16 212.444 277.24 212.244 277.24L206.664 277.48C206.184 277.48 205.944 277.24 205.944 276.76V275.26C205.944 273.86 205.544 272.72 204.744 271.84C203.944 270.96 202.884 270.52 201.564 270.52C200.284 270.52 199.244 270.96 198.444 271.84C197.644 272.72 197.244 273.86 197.244 275.26V296.74C197.244 298.14 197.644 299.28 198.444 300.16C199.244 301.04 200.284 301.48 201.564 301.48C202.884 301.48 203.944 301.04 204.744 300.16C205.544 299.28 205.944 298.14 205.944 296.74V295.24C205.944 295.04 206.004 294.88 206.124 294.76C206.284 294.6 206.464 294.52 206.664 294.52L212.244 294.76C212.444 294.76 212.604 294.84 212.724 295C212.884 295.12 212.964 295.28 212.964 295.48V296.2C212.964 299.6 211.924 302.34 209.844 304.42C207.764 306.46 205.004 307.48 201.564 307.48ZM228.386 275.86C231.546 275.86 234.106 276.78 236.066 278.62C238.026 280.46 239.006 282.88 239.006 285.88V306.28C239.006 306.48 238.926 306.66 238.766 306.82C238.646 306.94 238.486 307 238.286 307H232.766C232.566 307 232.386 306.94 232.226 306.82C232.106 306.66 232.046 306.48 232.046 306.28V305.14C232.046 305.02 232.006 304.94 231.926 304.9C231.846 304.86 231.766 304.9 231.686 305.02C230.286 306.66 228.246 307.48 225.566 307.48C223.286 307.48 221.266 306.84 219.506 305.56C217.786 304.24 216.926 301.86 216.926 298.42C216.926 294.82 217.966 292.26 220.046 290.74C222.166 289.22 225.026 288.46 228.626 288.46H231.746C231.946 288.46 232.046 288.36 232.046 288.16V286.6C232.046 285.16 231.686 284.02 230.966 283.18C230.246 282.3 229.346 281.86 228.266 281.86C227.426 281.86 226.726 282.14 226.166 282.7C225.606 283.22 225.266 283.94 225.146 284.86C225.106 285.34 224.846 285.58 224.366 285.58H218.546C218.066 285.58 217.846 285.34 217.886 284.86C218.086 282.14 219.146 279.96 221.066 278.32C223.026 276.68 225.466 275.86 228.386 275.86ZM227.486 301.72C228.686 301.72 229.746 301.34 230.666 300.58C231.586 299.82 232.046 298.76 232.046 297.4V293.98C232.046 293.78 231.946 293.68 231.746 293.68H228.626C227.266 293.68 226.166 294.06 225.326 294.82C224.486 295.54 224.066 296.6 224.066 298C224.066 299.24 224.386 300.18 225.026 300.82C225.666 301.42 226.486 301.72 227.486 301.72ZM256.921 275.86C259.601 275.86 261.681 276.74 263.161 278.5C264.641 280.22 265.381 282.58 265.381 285.58V297.7C265.381 300.78 264.641 303.18 263.161 304.9C261.681 306.62 259.601 307.48 256.921 307.48C256.001 307.48 255.061 307.32 254.101 307C253.141 306.64 252.281 306.08 251.521 305.32C251.441 305.24 251.361 305.22 251.281 305.26C251.201 305.3 251.161 305.38 251.161 305.5V317.62C251.161 317.82 251.081 317.98 250.921 318.1C250.801 318.26 250.641 318.34 250.441 318.34H244.921C244.721 318.34 244.541 318.26 244.381 318.1C244.261 317.98 244.201 317.82 244.201 317.62V277.06C244.201 276.86 244.261 276.7 244.381 276.58C244.541 276.42 244.721 276.34 244.921 276.34H250.441C250.641 276.34 250.801 276.42 250.921 276.58C251.081 276.7 251.161 276.86 251.161 277.06V277.78C251.161 277.9 251.201 277.98 251.281 278.02C251.401 278.02 251.521 277.94 251.641 277.78C253.041 276.5 254.801 275.86 256.921 275.86ZM258.481 286.12C258.481 284.84 258.141 283.8 257.461 283C256.781 282.2 255.881 281.8 254.761 281.8C253.681 281.8 252.801 282.2 252.121 283C251.481 283.8 251.161 284.84 251.161 286.12V297.22C251.161 298.5 251.481 299.54 252.121 300.34C252.801 301.1 253.681 301.48 254.761 301.48C255.881 301.48 256.781 301.1 257.461 300.34C258.141 299.54 258.481 298.5 258.481 297.22V286.12ZM280.886 275.86C284.046 275.86 286.606 276.78 288.566 278.62C290.526 280.46 291.506 282.88 291.506 285.88V306.28C291.506 306.48 291.426 306.66 291.266 306.82C291.146 306.94 290.986 307 290.786 307H285.266C285.066 307 284.886 306.94 284.726 306.82C284.606 306.66 284.546 306.48 284.546 306.28V305.14C284.546 305.02 284.506 304.94 284.426 304.9C284.346 304.86 284.266 304.9 284.186 305.02C282.786 306.66 280.746 307.48 278.066 307.48C275.786 307.48 273.766 306.84 272.006 305.56C270.286 304.24 269.426 301.86 269.426 298.42C269.426 294.82 270.466 292.26 272.546 290.74C274.666 289.22 277.526 288.46 281.126 288.46H284.246C284.446 288.46 284.546 288.36 284.546 288.16V286.6C284.546 285.16 284.186 284.02 283.466 283.18C282.746 282.3 281.846 281.86 280.766 281.86C279.926 281.86 279.226 282.14 278.666 282.7C278.106 283.22 277.766 283.94 277.646 284.86C277.606 285.34 277.346 285.58 276.866 285.58H271.046C270.566 285.58 270.346 285.34 270.386 284.86C270.586 282.14 271.646 279.96 273.566 278.32C275.526 276.68 277.966 275.86 280.886 275.86ZM279.986 301.72C281.186 301.72 282.246 301.34 283.166 300.58C284.086 299.82 284.546 298.76 284.546 297.4V293.98C284.546 293.78 284.446 293.68 284.246 293.68H281.126C279.766 293.68 278.666 294.06 277.826 294.82C276.986 295.54 276.566 296.6 276.566 298C276.566 299.24 276.886 300.18 277.526 300.82C278.166 301.42 278.986 301.72 279.986 301.72Z" fill="white"/>
</g>
<defs>
<clipPath id="clip0_39_20">
<rect width="330" height="500" fill="white"/>
</clipPath>
</defs>
</svg>
